<svg width="556" height="391" viewBox="0 0 556 391" fill="none" xmlns="http://www.w3.org/2000/svg">
<g filter="url(#filter0_d_5_7)">
<ellipse cx="263" cy="171" rx="255" ry="171" fill="url(#paint0_linear_5_7)" fill-opacity="0.7" shape-rendering="crispEdges"/>
<path d="M263 10C331.706 10 393.457 28.6931 437.743 58.3906C482.093 88.1314 508 128.136 508 171C508 213.864 482.093 253.869 437.743 283.609C393.457 313.307 331.706 332 263 332C194.294 332 132.543 313.307 88.2568 283.609C43.9068 253.869 18 213.864 18 171C18 128.136 43.9068 88.1314 88.2568 58.3906C132.543 28.6931 194.294 10 263 10Z" stroke="url(#paint1_linear_5_7)" stroke-width="20" shape-rendering="crispEdges"/>
</g>
<defs>
<filter id="filter0_d_5_7" x="0.6" y="0" width="554.8" height="390.4" filterUnits="userSpaceOnUse" color-interpolation-filters="sRGB">
<feFlood flood-opacity="0" result="BackgroundImageFix"/>
<feColorMatrix in="SourceAlpha" type="matrix" values="0 0 0 0 0 0 0 0 0 0 0 0 0 0 0 0 0 0 127 0" result="hardAlpha"/>
<feMorphology radius="15" operator="dilate" in="SourceAlpha" result="effect1_dropShadow_5_7"/>
<feOffset dx="15" dy="26"/>
<feGaussianBlur stdDeviation="3.7"/>
<feComposite in2="hardAlpha" operator="out"/>
<feColorMatrix type="matrix" values="0 0 0 0 0 0 0 0 0 0 0 0 0 0 0 0 0 0 0.25 0"/>
<feBlend mode="normal" in2="BackgroundImageFix" result="effect1_dropShadow_5_7"/>
<feBlend mode="normal" in="SourceGraphic" in2="effect1_dropShadow_5_7" result="shape"/>
</filter>
<linearGradient id="paint0_linear_5_7" x1="263" y1="0" x2="263" y2="342" gradientUnits="userSpaceOnUse">
<stop stop-color="#E13C3C"/>
<stop offset="1" stop-color="#462424"/>
</linearGradient>
<linearGradient id="paint1_linear_5_7" x1="263" y1="0" x2="263" y2="342" gradientUnits="userSpaceOnUse">
<stop offset="0.0123839" stop-color="white"/>
<stop offset="1" stop-color="#232222"/>
</linearGradient>
</defs>
</svg>
