<svg width="510" height="342" viewBox="0 0 510 342" fill="none" xmlns="http://www.w3.org/2000/svg">
<g id="Ellipse 1" filter="url(#filter0_d_5_7)">
<ellipse cx="255" cy="171" rx="255" ry="171" fill="url(#paint0_linear_5_7)" fill-opacity="0.7" shape-rendering="crispEdges"/>
<path d="M255 10C323.706 10 385.457 28.6931 429.743 58.3906C474.093 88.1314 500 128.136 500 171C500 213.864 474.093 253.869 429.743 283.609C385.457 313.307 323.706 332 255 332C186.294 332 124.543 313.307 80.2568 283.609C35.9068 253.869 10 213.864 10 171C10 128.136 35.9068 88.1314 80.2568 58.3906C124.543 28.6931 186.294 10 255 10Z" stroke="url(#paint1_linear_5_7)" stroke-width="20" shape-rendering="crispEdges"/>
</g>
<defs>
<filter id="filter0_d_5_7" x="-7.4" y="0" width="554.8" height="390.4" filterUnits="userSpaceOnUse" color-interpolation-filters="sRGB">
<feFlood flood-opacity="0" result="BackgroundImageFix"/>
<feColorMatrix in="SourceAlpha" type="matrix" values="0 0 0 0 0 0 0 0 0 0 0 0 0 0 0 0 0 0 127 0" result="hardAlpha"/>
<feMorphology radius="15" operator="dilate" in="SourceAlpha" result="effect1_dropShadow_5_7"/>
<feOffset dx="15" dy="26"/>
<feGaussianBlur stdDeviation="3.7"/>
<feComposite in2="hardAlpha" operator="out"/>
<feColorMatrix type="matrix" values="0 0 0 0 0 0 0 0 0 0 0 0 0 0 0 0 0 0 0.25 0"/>
<feBlend mode="normal" in2="BackgroundImageFix" result="effect1_dropShadow_5_7"/>
<feBlend mode="normal" in="SourceGraphic" in2="effect1_dropShadow_5_7" result="shape"/>
</filter>
<linearGradient id="paint0_linear_5_7" x1="255" y1="0" x2="255" y2="342" gradientUnits="userSpaceOnUse">
<stop stop-color="#E13C3C"/>
<stop offset="1" stop-color="#462424"/>
</linearGradient>
<linearGradient id="paint1_linear_5_7" x1="255" y1="0" x2="255" y2="342" gradientUnits="userSpaceOnUse">
<stop offset="0.0123839" stop-color="white"/>
<stop offset="1" stop-color="#232222"/>
</linearGradient>
</defs>
</svg>
